<svg xmlns="http://www.w3.org/2000/svg" xmlns:xlink="http://www.w3.org/1999/xlink" width="794" zoomAndPan="magnify" viewBox="0 0 595.5 842.249979" height="1123" preserveAspectRatio="xMidYMid meet" version="1.0"><defs><filter x="0%" y="0%" width="100%" height="100%" id="id1"><feColorMatrix values="0 0 0 0 1 0 0 0 0 1 0 0 0 0 1 0 0 0 1 0" color-interpolation-filters="sRGB"/></filter><clipPath id="id2"><path d="M 0.015625 118 L 594.984375 118 L 594.984375 741 L 0.015625 741 Z M 0.015625 118 " clip-rule="nonzero"/></clipPath><mask id="id3"><g filter="url(#id1)"><rect x="-59.55" width="714.6" fill="rgb(0%, 0%, 0%)" y="-84.224998" height="1010.699974" fill-opacity="0.949"/></g></mask><clipPath id="id4"><path d="M 340 279 L 594.984375 279 L 594.984375 463 L 340 463 Z M 340 279 " clip-rule="nonzero"/></clipPath><clipPath id="id5"><path d="M 0.015625 188 L 67 188 L 67 235 L 0.015625 235 Z M 0.015625 188 " clip-rule="nonzero"/></clipPath><clipPath id="id6"><path d="M 136 322 L 403 322 L 403 622.128906 L 136 622.128906 Z M 136 322 " clip-rule="nonzero"/></clipPath><clipPath id="id7"><path d="M 73 322 L 137 322 L 137 622.128906 L 73 622.128906 Z M 73 322 " clip-rule="nonzero"/></clipPath><clipPath id="id8"><path d="M 105 322 L 137 322 L 137 622.128906 L 105 622.128906 Z M 105 322 " clip-rule="nonzero"/></clipPath><clipPath id="id9"><path d="M 73 576 L 137 576 L 137 622.128906 L 73 622.128906 Z M 73 576 " clip-rule="nonzero"/></clipPath><clipPath id="id10"><path d="M 368 365 L 594.984375 365 L 594.984375 539 L 368 539 Z M 368 365 " clip-rule="nonzero"/></clipPath><clipPath id="id11"><path d="M 368 365 L 594.984375 365 L 594.984375 463 L 368 463 Z M 368 365 " clip-rule="nonzero"/></clipPath><clipPath id="id12"><rect x="0" width="595" y="0" height="623"/></clipPath></defs><g clip-path="url(#id2)"><g mask="url(#id3)"><g transform="matrix(1, 0, 0, 1, -0.000000000000000002, 118)"><g clip-path="url(#id12)"><path fill="rgb(0%, 30.979919%, 64.709473%)" d="M 180.699219 463.027344 C 180.457031 460.871094 182.375 458.714844 184.292969 457.757812 C 186.449219 456.5625 188.84375 456.082031 191.480469 455.84375 C 224.308594 453.925781 242.28125 446.5 249.46875 441.949219 C 250.191406 441.46875 249.710938 440.269531 248.75 440.511719 C 241.324219 442.90625 233.65625 444.582031 225.988281 445.542969 C 217.121094 446.980469 207.777344 446.980469 198.910156 446.019531 C 197.710938 445.78125 196.753906 445.542969 195.792969 445.0625 C 190.042969 442.1875 191.480469 434.28125 197.710938 433.085938 C 205.621094 431.886719 213.527344 430.210938 221.675781 428.773438 C 234.855469 426.375 247.3125 421.824219 259.054688 415.597656 C 265.046875 412.242188 270.558594 408.648438 275.828125 404.339844 C 263.367188 406.253906 251.867188 407.453125 239.40625 406.492188 C 233.894531 406.015625 226.226562 402.902344 226.226562 397.871094 C 226.226562 394.515625 229.582031 391.640625 233.414062 390.683594 C 237.011719 389.726562 240.84375 390.203125 244.679688 389.964844 C 255.941406 389.726562 266.484375 385.171875 277.507812 382.539062 C 295.238281 378.707031 320.640625 378.707031 332.382812 388.046875 L 345.082031 460.394531 C 331.421875 482.671875 295.71875 504.472656 244.4375 505.667969 C 236.769531 504.949219 238.207031 499.441406 240.125 498.242188 C 244.679688 495.367188 250.429688 493.929688 255.222656 491.296875 C 258.335938 489.617188 263.367188 486.265625 265.046875 483.390625 C 265.527344 482.433594 264.328125 481.234375 260.492188 483.628906 C 244.679688 493.453125 211.609375 494.410156 204.898438 492.253906 C 202.265625 491.296875 199.628906 489.378906 199.867188 486.984375 C 200.109375 485.066406 202.023438 483.628906 203.941406 482.671875 C 215.445312 477.640625 242.042969 476.203125 254.742188 463.988281 C 255.941406 462.789062 254.503906 461.113281 253.066406 461.589844 C 232.9375 469.257812 213.765625 471.652344 191.722656 469.257812 C 189.324219 469.015625 186.929688 468.539062 184.773438 467.582031 C 182.613281 467.101562 180.699219 465.183594 180.699219 463.027344 Z M 180.699219 463.027344 " fill-opacity="1" fill-rule="nonzero"/><path fill="rgb(0%, 30.979919%, 64.709473%)" d="M 326.628906 468.300781 L 384.621094 450.09375 L 361.617188 372.71875 L 311.773438 390.445312 Z M 326.628906 468.300781 " fill-opacity="1" fill-rule="nonzero"/><g clip-path="url(#id4)"><path fill="rgb(0%, 30.979919%, 64.709473%)" d="M 340.527344 374.871094 L 595.25 279.050781 L 595.25 402.902344 L 369.042969 462.550781 Z M 340.527344 374.871094 " fill-opacity="1" fill-rule="nonzero"/></g><path fill="rgb(99.21875%, 62.348938%, 0.779724%)" d="M 292.125 431.167969 C 298.59375 434.28125 305.542969 436.199219 312.253906 437.394531 C 302.667969 429.96875 296.675781 421.105469 291.882812 411.046875 C 292.125 403.621094 292.363281 395.714844 293.082031 387.328125 C 301.46875 393.078125 312.011719 396.191406 321.597656 397.871094 C 308.660156 388.046875 301.710938 375.832031 295.71875 361.9375 C 296.4375 356.425781 297.15625 350.917969 298.113281 345.167969 C 307.21875 352.355469 319.679688 356.1875 330.945312 358.582031 C 316.804688 348.042969 309.378906 334.628906 302.667969 319.535156 C 303.625 314.746094 304.585938 309.953125 305.542969 305.164062 C 315.128906 312.828125 328.546875 316.902344 340.289062 319.296875 C 325.910156 308.757812 318.003906 295.582031 311.054688 280.726562 C 312.253906 275.9375 313.449219 271.144531 314.648438 266.355469 C 324.714844 273.542969 337.890625 277.375 349.632812 279.769531 C 335.734375 269.949219 327.589844 257.730469 320.640625 244.078125 C 322.078125 238.804688 323.753906 233.535156 325.191406 228.265625 C 335.257812 234.496094 347.71875 238.085938 358.738281 240.242188 C 346.28125 231.378906 337.890625 220.839844 331.421875 209.101562 C 333.578125 202.632812 335.734375 196.164062 338.132812 189.699219 C 348.195312 197.125 361.617188 201.195312 373.597656 203.59375 C 360.417969 194.007812 352.269531 182.511719 345.5625 169.574219 C 347.957031 163.585938 350.113281 157.597656 352.507812 152.085938 C 362.09375 160.234375 375.992188 164.542969 388.214844 166.941406 C 375.035156 157.359375 367.367188 145.621094 360.898438 132.445312 C 363.53125 126.695312 365.929688 121.183594 368.566406 115.675781 C 377.671875 123.820312 391.089844 127.894531 403.070312 130.289062 C 390.851562 121.183594 383.660156 109.925781 377.429688 97.46875 C 380.304688 91.71875 383.421875 85.972656 386.296875 80.699219 C 394.921875 87.886719 406.90625 91.71875 417.6875 93.636719 C 407.144531 85.730469 400.675781 75.910156 395.164062 64.890625 C 398.996094 58.660156 402.589844 52.671875 406.1875 47.164062 C 413.855469 52.433594 423.679688 55.308594 432.304688 56.746094 C 424.398438 50.515625 418.886719 43.332031 414.574219 35.183594 C 430.386719 12.1875 444.765625 0.449219 454.109375 3.324219 C 478.792969 10.992188 440.210938 114.476562 399.714844 244.078125 C 358.980469 373.675781 331.664062 480.515625 306.980469 472.851562 C 298.59375 470.214844 293.5625 455.125 292.125 431.167969 Z M 292.125 431.167969 " fill-opacity="1" fill-rule="nonzero"/><path fill="rgb(80.778503%, 48.629761%, 1.959229%)" d="M 405.46875 46.683594 C 408.34375 42.371094 410.976562 38.539062 413.613281 34.707031 C 417.925781 42.851562 423.4375 50.039062 431.347656 56.265625 C 422.960938 54.589844 413.136719 51.953125 405.46875 46.683594 Z M 405.46875 46.683594 " fill-opacity="1" fill-rule="nonzero"/><path fill="rgb(80.778503%, 48.629761%, 1.959229%)" d="M 416.96875 93.15625 C 406.1875 91.242188 394.203125 87.40625 385.578125 80.222656 C 388.453125 74.710938 391.570312 69.441406 394.445312 64.410156 C 399.957031 75.429688 406.425781 85.011719 416.96875 93.15625 Z M 416.96875 93.15625 " fill-opacity="1" fill-rule="nonzero"/><path fill="rgb(80.778503%, 48.629761%, 1.959229%)" d="M 402.351562 129.808594 C 390.609375 127.652344 377.191406 123.339844 367.847656 115.195312 C 370.722656 108.96875 373.835938 102.738281 376.710938 96.75 C 382.941406 109.445312 390.132812 120.707031 402.351562 129.808594 Z M 402.351562 129.808594 " fill-opacity="1" fill-rule="nonzero"/><path fill="rgb(80.778503%, 48.629761%, 1.959229%)" d="M 387.734375 166.699219 C 375.515625 164.304688 361.855469 159.992188 352.03125 151.847656 C 354.90625 145.140625 357.542969 138.433594 360.417969 131.964844 C 366.886719 145.378906 374.554688 157.117188 387.734375 166.699219 Z M 387.734375 166.699219 " fill-opacity="1" fill-rule="nonzero"/><path fill="rgb(80.778503%, 48.629761%, 1.959229%)" d="M 337.890625 189.699219 C 340.289062 182.75 342.683594 176.042969 345.320312 169.574219 C 352.03125 182.511719 360.175781 194.007812 373.355469 203.589844 C 361.375 201.195312 347.957031 197.125 337.890625 189.699219 Z M 337.890625 189.699219 " fill-opacity="1" fill-rule="nonzero"/><path fill="rgb(80.778503%, 48.629761%, 1.959229%)" d="M 312.253906 437.394531 C 305.78125 436.199219 298.59375 434.28125 292.125 431.167969 C 291.882812 424.941406 291.644531 418.230469 291.882812 411.046875 C 296.675781 421.105469 302.667969 429.96875 312.253906 437.394531 Z M 312.253906 437.394531 " fill-opacity="1" fill-rule="nonzero"/><path fill="rgb(80.778503%, 48.629761%, 1.959229%)" d="M 321.359375 397.871094 C 311.773438 395.953125 301.230469 393.078125 292.84375 387.328125 C 293.5625 379.183594 294.28125 370.800781 295.480469 361.9375 C 301.710938 375.832031 308.660156 388.289062 321.359375 397.871094 Z M 321.359375 397.871094 " fill-opacity="1" fill-rule="nonzero"/><path fill="rgb(80.778503%, 48.629761%, 1.959229%)" d="M 330.703125 358.582031 C 319.679688 356.425781 306.980469 352.59375 297.875 345.167969 C 299.074219 336.785156 300.75 328.160156 302.429688 319.296875 C 309.136719 334.628906 316.566406 348.042969 330.703125 358.582031 Z M 330.703125 358.582031 " fill-opacity="1" fill-rule="nonzero"/><path fill="rgb(80.778503%, 48.629761%, 1.959229%)" d="M 340.050781 319.058594 C 328.308594 316.660156 314.886719 312.589844 305.304688 304.921875 C 306.980469 296.777344 308.898438 288.632812 310.816406 280.488281 C 317.765625 295.339844 325.671875 308.515625 340.050781 319.058594 Z M 340.050781 319.058594 " fill-opacity="1" fill-rule="nonzero"/><path fill="rgb(80.778503%, 48.629761%, 1.959229%)" d="M 314.410156 266.355469 C 316.328125 258.929688 318.242188 251.742188 320.398438 244.078125 C 327.347656 257.730469 335.496094 269.707031 349.394531 279.769531 C 337.652344 277.375 324.472656 273.300781 314.410156 266.355469 Z M 314.410156 266.355469 " fill-opacity="1" fill-rule="nonzero"/><path fill="rgb(80.778503%, 48.629761%, 1.959229%)" d="M 325.191406 228.265625 C 325.910156 225.871094 326.628906 223.476562 327.347656 221.320312 C 328.546875 217.246094 329.984375 213.175781 331.183594 209.101562 C 337.894531 220.839844 346.039062 231.378906 358.5 240.242188 C 347.476562 238.085938 335.257812 234.496094 325.191406 228.265625 Z M 325.191406 228.265625 " fill-opacity="1" fill-rule="nonzero"/><path fill="rgb(100%, 100%, 100%)" d="M 259.773438 256.054688 L 260.253906 352.355469 C 260.253906 359.78125 267.683594 366.007812 277.027344 366.007812 L 332.621094 365.769531 C 341.726562 365.769531 349.15625 359.542969 349.15625 352.113281 L 348.914062 255.816406 L 348.675781 187.78125 C 348.675781 176.523438 331.421875 144.660156 324.953125 143.941406 L 283.257812 144.183594 C 277.027344 144.902344 259.773438 177 259.773438 188.261719 Z M 259.773438 256.054688 " fill-opacity="1" fill-rule="nonzero"/><path fill="rgb(80.389404%, 85.879517%, 99.609375%)" d="M 283.976562 131.246094 L 325.671875 131.007812 C 338.613281 131.007812 356.105469 171.253906 356.105469 182.75 L 356.824219 350.917969 C 356.824219 362.414062 346.519531 371.757812 333.339844 371.757812 L 277.746094 372 C 264.808594 372 254.261719 362.65625 254.261719 351.15625 L 253.785156 182.988281 C 253.785156 171.730469 271.035156 131.484375 283.976562 131.246094 Z M 263.367188 254.136719 L 263.609375 347.324219 C 263.609375 354.511719 270.796875 360.5 279.425781 360.5 L 331.902344 360.261719 C 340.527344 360.261719 347.71875 354.269531 347.476562 346.84375 L 347.238281 253.660156 L 347 187.78125 C 347 177 330.703125 145.859375 324.472656 145.378906 L 284.933594 145.621094 C 278.945312 146.339844 262.890625 177.480469 262.890625 188.261719 Z M 263.367188 254.136719 " fill-opacity="1" fill-rule="nonzero"/><path fill="rgb(30.979919%, 58.039856%, 97.648621%)" d="M 268.402344 120.945312 L 268.402344 107.53125 C 268.402344 101.300781 273.433594 96.511719 279.425781 96.273438 L 328.546875 96.273438 C 334.777344 96.273438 339.808594 101.300781 339.808594 107.292969 L 339.808594 120.707031 C 339.808594 121.902344 339.570312 122.863281 339.332031 123.820312 L 269.121094 123.820312 C 268.640625 123.101562 268.402344 122.144531 268.402344 120.945312 Z M 268.402344 120.945312 " fill-opacity="1" fill-rule="nonzero"/><path fill="rgb(9.01947%, 39.608765%, 81.17981%)" d="M 339.332031 124.058594 C 337.890625 128.613281 333.820312 131.964844 328.785156 131.964844 L 279.902344 132.203125 C 274.871094 132.203125 270.558594 128.851562 269.121094 124.058594 Z M 339.332031 124.058594 " fill-opacity="1" fill-rule="nonzero"/><path fill="rgb(98.81897%, 50.19989%, 2.349854%)" d="M 211.609375 74.710938 C 212.089844 66.566406 212.089844 59.140625 212.808594 45.484375 L 238.925781 47.882812 C 237.25 61.535156 236.050781 68.722656 234.855469 76.867188 Z M 211.609375 74.710938 " fill-opacity="1" fill-rule="nonzero"/><path fill="rgb(1.179504%, 15.289307%, 49.01886%)" d="M 211.371094 74.472656 L 234.613281 76.628906 C 231.738281 97.949219 229.101562 133.640625 235.8125 148.015625 C 247.554688 173.167969 254.980469 165.261719 249.46875 227.066406 C 243.960938 288.871094 238.6875 344.929688 238.6875 344.929688 L 158.890625 337.742188 C 158.890625 337.742188 163.925781 281.925781 169.675781 219.882812 C 175.1875 158.078125 181.175781 167.179688 197.230469 144.660156 C 206.578125 131.484375 210.410156 95.792969 211.371094 74.472656 Z M 179.019531 220.359375 L 173.988281 277.136719 L 235.574219 282.644531 L 240.605469 226.109375 C 241.324219 216.765625 242.042969 209.339844 242.28125 203.113281 L 181.417969 197.601562 C 180.699219 203.59375 179.738281 211.257812 179.019531 220.359375 Z M 179.019531 220.359375 " fill-opacity="1" fill-rule="nonzero"/><path fill="rgb(9.01947%, 39.608765%, 81.17981%)" d="M 179.019531 220.359375 L 173.988281 277.136719 L 235.574219 282.644531 L 240.605469 226.109375 C 241.324219 216.765625 242.042969 209.339844 242.28125 203.113281 L 181.417969 197.601562 C 180.699219 203.59375 179.738281 211.257812 179.019531 220.359375 Z M 179.019531 220.359375 " fill-opacity="1" fill-rule="nonzero"/><path fill="rgb(28.239441%, 58.428955%, 41.958618%)" d="M 134.210938 167.898438 C 129.417969 173.648438 125.34375 179.636719 121.988281 185.863281 C 120.550781 188.261719 119.355469 190.894531 118.15625 193.289062 C 116.238281 197.363281 114.5625 201.195312 113.125 205.507812 C 112.164062 208.144531 111.445312 211.019531 110.726562 213.652344 C 109.289062 218.921875 108.089844 224.433594 107.613281 229.941406 C 107.132812 233.058594 106.894531 235.929688 106.652344 239.046875 C 106.414062 245.753906 106.414062 252.460938 107.132812 258.929688 C 107.613281 262.28125 108.089844 265.636719 108.570312 268.988281 C 110.007812 276.417969 112.164062 283.84375 115.039062 290.789062 C 116.238281 293.902344 117.675781 297.019531 119.113281 299.890625 C 122.949219 307.558594 127.5 314.746094 133.011719 321.691406 C 134.929688 324.085938 136.847656 326.484375 139.003906 328.878906 C 141.160156 331.273438 143.316406 333.429688 145.710938 335.585938 C 148.828125 338.460938 152.183594 341.335938 155.539062 343.730469 C 158.171875 345.648438 160.808594 347.5625 163.445312 349.242188 C 168.71875 352.59375 173.988281 355.46875 179.5 357.863281 C 182.136719 359.0625 184.773438 360.019531 187.40625 360.980469 C 194.597656 363.613281 202.023438 365.53125 209.453125 366.726562 C 213.046875 367.207031 216.402344 367.6875 219.996094 367.925781 C 225.269531 368.40625 230.78125 368.40625 236.050781 368.164062 C 239.40625 367.925781 242.761719 367.6875 245.875 367.207031 C 252.105469 366.25 258.335938 365.050781 264.328125 363.132812 C 267.441406 362.175781 270.316406 361.21875 273.433594 360.019531 C 280.863281 357.144531 288.289062 353.3125 295.238281 349 C 297.875 347.324219 300.511719 345.40625 302.90625 343.492188 C 306.742188 340.617188 310.335938 337.503906 313.929688 334.148438 Z M 134.210938 167.898438 " fill-opacity="1" fill-rule="nonzero"/><path fill="rgb(43.919373%, 73.329163%, 57.249451%)" d="M 107.132812 259.167969 C 107.613281 262.523438 108.089844 265.875 108.570312 269.230469 C 108.808594 269.230469 108.808594 269.230469 109.050781 269.230469 C 110.96875 269.707031 113.125 270.90625 114.5625 269.46875 C 115.039062 268.988281 115.28125 268.511719 115.757812 268.03125 C 116.476562 267.3125 117.4375 267.3125 118.636719 267.3125 C 121.988281 267.3125 125.105469 267.3125 128.460938 267.3125 C 128.21875 267.3125 128.21875 267.3125 127.980469 267.3125 L 129.898438 259.648438 C 129.179688 257.96875 127.261719 257.492188 125.34375 257.492188 C 123.667969 257.730469 121.988281 258.449219 120.550781 259.40625 C 118.875 260.125 117.199219 260.84375 115.519531 260.605469 C 114.082031 260.367188 112.882812 259.648438 111.445312 259.167969 C 110.007812 258.929688 108.570312 258.929688 107.132812 259.167969 Z M 107.132812 259.167969 " fill-opacity="1" fill-rule="nonzero"/><path fill="rgb(43.919373%, 73.329163%, 57.249451%)" d="M 212.808594 349.960938 C 212.566406 351.636719 213.046875 353.3125 213.289062 355.230469 C 213.527344 356.90625 213.765625 358.824219 213.046875 360.5 C 212.566406 361.699219 211.371094 362.894531 210.652344 363.851562 C 209.933594 364.8125 209.453125 365.769531 209.214844 366.96875 C 212.808594 367.445312 216.164062 367.925781 219.757812 368.164062 C 220.714844 366.726562 221.914062 365.050781 221.195312 363.613281 C 220.957031 363.132812 220.476562 362.65625 220.238281 362.175781 C 219.757812 361.21875 219.996094 360.261719 220.238281 359.300781 C 221.195312 356.1875 221.914062 353.074219 222.871094 349.71875 C 222.871094 349.960938 222.632812 349.960938 222.632812 350.199219 L 215.921875 346.125 C 214.246094 346.605469 213.289062 348.28125 212.808594 349.960938 Z M 212.808594 349.960938 " fill-opacity="1" fill-rule="nonzero"/><path fill="rgb(43.919373%, 73.329163%, 57.249451%)" d="M 236.292969 348.523438 C 236.292969 350.199219 237.011719 351.875 237.730469 353.550781 C 238.449219 355.230469 238.925781 356.90625 238.449219 358.582031 C 238.207031 360.019531 237.25 361.21875 236.769531 362.417969 C 235.8125 364.332031 235.8125 366.25 236.050781 368.40625 C 239.40625 368.164062 242.761719 367.925781 245.875 367.445312 C 245.875 366.96875 245.875 366.488281 246.117188 365.769531 C 246.835938 363.851562 248.273438 361.699219 247.074219 360.261719 C 246.59375 359.78125 246.117188 359.542969 245.875 359.0625 C 245.398438 358.34375 245.398438 357.144531 245.398438 356.1875 C 245.636719 352.832031 245.875 349.71875 246.355469 346.367188 C 246.355469 346.605469 246.355469 346.605469 246.355469 346.84375 L 238.925781 344.210938 C 237.011719 344.929688 236.292969 346.84375 236.292969 348.523438 Z M 236.292969 348.523438 " fill-opacity="1" fill-rule="nonzero"/><path fill="rgb(43.919373%, 73.329163%, 57.249451%)" d="M 260.492188 346.367188 C 260.972656 348.042969 261.929688 349.480469 262.890625 350.917969 C 263.847656 352.355469 264.566406 354.03125 264.566406 355.707031 C 264.566406 357.625 263.847656 359.300781 264.085938 361.457031 C 264.085938 361.9375 264.085938 362.65625 264.328125 363.132812 C 267.441406 362.175781 270.316406 361.21875 273.433594 360.019531 C 273.433594 358.582031 273.671875 357.144531 273.195312 355.707031 C 272.714844 354.75 271.996094 353.792969 271.515625 352.832031 C 270.558594 351.15625 270.796875 349.480469 270.796875 347.804688 C 270.558594 345.886719 270.316406 343.96875 270.078125 342.054688 C 270.078125 342.292969 270.078125 342.292969 270.078125 342.53125 L 262.171875 341.335938 C 260.492188 342.773438 260.015625 344.6875 260.492188 346.367188 Z M 260.492188 346.367188 " fill-opacity="1" fill-rule="nonzero"/><path fill="rgb(43.919373%, 73.329163%, 57.249451%)" d="M 115.039062 291.027344 C 116.238281 294.144531 117.675781 297.257812 119.113281 300.132812 C 121.988281 299.171875 125.585938 298.933594 128.21875 297.019531 C 129.417969 296.300781 130.375 295.101562 131.574219 294.382812 C 132.773438 293.664062 134.210938 293.183594 135.648438 293.664062 L 132.054688 281.925781 C 130.855469 281.207031 129.179688 281.6875 127.980469 282.882812 C 127.023438 283.84375 126.304688 285.28125 125.585938 286.476562 C 124.867188 287.675781 123.90625 289.113281 122.707031 289.589844 C 120.550781 290.550781 117.675781 289.351562 115.519531 290.550781 C 115.28125 290.789062 115.039062 291.027344 115.039062 291.027344 Z M 115.039062 291.027344 " fill-opacity="1" fill-rule="nonzero"/><path fill="rgb(43.919373%, 73.329163%, 57.249451%)" d="M 286.132812 333.191406 C 285.894531 334.148438 286.851562 334.867188 287.570312 335.347656 C 291.164062 338.222656 290.925781 343.96875 293.800781 347.804688 C 294.28125 348.28125 294.761719 348.761719 295 349.242188 C 297.636719 347.5625 300.269531 345.648438 302.667969 343.730469 C 301.949219 343.25 300.988281 342.53125 300.75 341.8125 C 299.550781 339.660156 300.75 336.785156 299.3125 334.628906 C 298.355469 333.191406 296.675781 332.710938 295.238281 331.992188 C 293.800781 331.273438 292.125 329.835938 292.363281 328.398438 C 290.445312 329.597656 288.769531 331.035156 287.09375 332.230469 C 286.613281 332.472656 286.375 332.949219 286.132812 333.191406 Z M 286.132812 333.191406 " fill-opacity="1" fill-rule="nonzero"/><path fill="rgb(43.919373%, 73.329163%, 57.249451%)" d="M 183.8125 340.617188 C 183.574219 342.054688 184.054688 343.492188 184.292969 344.929688 C 184.53125 346.367188 184.773438 348.042969 184.054688 349.242188 C 182.855469 351.398438 179.980469 352.355469 179.261719 354.511719 C 178.78125 355.707031 179.019531 356.667969 179.261719 357.863281 C 181.894531 359.0625 184.53125 360.019531 187.167969 360.980469 C 188.605469 357.625 191.960938 354.75 192.917969 351.15625 C 193.398438 349.71875 193.398438 348.28125 193.878906 346.84375 C 194.355469 345.40625 195.074219 344.210938 196.511719 343.730469 L 186.210938 337.023438 C 185.011719 337.503906 184.054688 339.179688 183.8125 340.617188 Z M 183.8125 340.617188 " fill-opacity="1" fill-rule="nonzero"/><path fill="rgb(43.919373%, 73.329163%, 57.249451%)" d="M 137.324219 313.785156 C 136.367188 314.746094 136.128906 316.421875 135.648438 317.621094 C 134.929688 319.296875 133.972656 320.734375 132.773438 321.929688 C 134.691406 324.328125 136.605469 326.722656 138.761719 329.117188 C 139.960938 328.160156 141.160156 327.441406 141.878906 326.242188 C 142.835938 325.046875 143.554688 323.609375 144.273438 322.410156 C 145.710938 320.015625 148.109375 317.859375 150.503906 316.421875 L 144.992188 308.277344 C 144.753906 309.953125 143.078125 311.152344 141.398438 311.628906 C 140.203125 312.109375 138.523438 312.589844 137.324219 313.785156 Z M 137.324219 313.785156 " fill-opacity="1" fill-rule="nonzero"/><path fill="rgb(43.919373%, 73.329163%, 57.249451%)" d="M 161.527344 334.628906 C 160.570312 335.347656 159.371094 335.585938 158.414062 336.304688 C 157.453125 337.503906 157.453125 339.179688 156.976562 340.617188 C 156.734375 341.8125 156.015625 343.011719 155.296875 343.96875 C 157.933594 345.886719 160.570312 347.804688 163.207031 349.480469 C 163.683594 348.28125 163.925781 347.085938 163.925781 345.648438 C 163.925781 344.210938 163.925781 342.53125 164.644531 341.097656 C 165.363281 339.179688 167.277344 338.222656 168.957031 337.023438 C 170.394531 335.824219 171.832031 333.667969 170.875 331.753906 L 165.363281 327.441406 C 164.644531 330.078125 163.925781 333.191406 161.527344 334.628906 Z M 161.527344 334.628906 " fill-opacity="1" fill-rule="nonzero"/><path fill="rgb(43.919373%, 73.329163%, 57.249451%)" d="M 121.75 186.105469 C 120.3125 188.5 119.113281 191.136719 117.917969 193.53125 C 118.394531 194.007812 118.875 194.25 119.355469 194.726562 C 122.230469 196.644531 126.0625 196.40625 129.417969 197.125 C 132.292969 197.601562 134.929688 198.320312 137.324219 199.757812 C 139.484375 200.71875 141.398438 203.351562 143.554688 204.070312 C 146.191406 205.027344 145.953125 204.308594 147.152344 201.675781 C 147.628906 200.71875 148.828125 194.488281 149.546875 194.25 C 146.910156 194.96875 144.035156 194.007812 141.640625 193.050781 C 139.242188 191.855469 136.847656 190.417969 134.210938 189.699219 C 130.855469 188.980469 127.5 189.21875 124.386719 188.019531 C 123.667969 187.300781 122.707031 186.582031 121.75 186.105469 Z M 121.75 186.105469 " fill-opacity="1" fill-rule="nonzero"/><path fill="rgb(43.919373%, 73.329163%, 57.249451%)" d="M 112.40625 208.144531 C 111.445312 210.777344 110.726562 213.652344 110.007812 216.289062 C 112.644531 217.007812 115.757812 216.765625 118.394531 217.007812 C 121.269531 217.246094 123.90625 217.726562 126.542969 218.683594 C 128.699219 219.402344 131.09375 221.796875 133.253906 222.277344 C 136.128906 222.996094 135.886719 222.277344 136.605469 219.640625 C 136.847656 218.683594 137.566406 212.214844 138.285156 211.976562 C 135.648438 212.933594 132.773438 212.457031 130.375 211.496094 C 127.742188 210.539062 125.34375 209.339844 122.707031 208.863281 C 119.113281 208.382812 115.757812 209.339844 112.40625 208.144531 Z M 112.40625 208.144531 " fill-opacity="1" fill-rule="nonzero"/><path fill="rgb(43.919373%, 73.329163%, 57.249451%)" d="M 107.371094 229.941406 C 106.894531 233.058594 106.652344 235.929688 106.414062 239.046875 C 107.132812 239.046875 107.851562 239.285156 108.808594 239.523438 C 111.445312 240.242188 114.082031 241.203125 116.71875 241.441406 C 120.074219 241.679688 123.425781 240.484375 126.78125 241.203125 C 129.179688 241.679688 131.335938 243.117188 133.492188 244.078125 C 134.449219 244.554688 135.410156 244.796875 136.128906 244.554688 C 137.804688 244.078125 138.285156 241.921875 138.042969 240.242188 C 137.804688 238.566406 137.566406 236.648438 138.523438 235.214844 C 137.324219 235.929688 135.648438 235.691406 134.210938 234.972656 C 132.773438 234.496094 131.574219 233.535156 130.375 233.058594 C 127.261719 231.859375 123.425781 232.578125 120.074219 232.816406 C 117.199219 232.816406 114.5625 232.578125 111.6875 231.859375 C 110.25 231.621094 108.808594 230.660156 107.371094 229.941406 Z M 107.371094 229.941406 " fill-opacity="1" fill-rule="nonzero"/><path fill="rgb(100%, 100%, 100%)" d="M 144.992188 177.960938 C 109.53125 221.796875 113.601562 286 155.539062 325.046875 C 197.472656 363.851562 261.929688 363.132812 302.90625 324.566406 L 299.792969 321.691406 L 148.109375 181.074219 Z M 144.992188 177.960938 " fill-opacity="1" fill-rule="nonzero"/><path fill="rgb(99.609375%, 58.428955%, 57.249451%)" d="M 148.109375 180.835938 C 131.574219 201.4375 123.667969 226.828125 125.585938 252.941406 C 127.5 279.050781 139.003906 303.484375 157.933594 321.210938 L 158.414062 321.691406 C 177.824219 339.660156 202.984375 349.480469 229.34375 349.242188 C 255.460938 349.242188 280.621094 339.179688 299.550781 321.453125 L 299.792969 321.210938 Z M 148.109375 180.835938 " fill-opacity="1" fill-rule="nonzero"/><path fill="rgb(99.609375%, 17.649841%, 36.468506%)" d="M 150.746094 183.230469 C 138.042969 199.28125 130.855469 217.964844 129.179688 237.367188 C 126.542969 267.074219 137.324219 297.496094 160.808594 319.296875 C 199.628906 355.230469 259.296875 354.75 297.394531 319.058594 L 294.761719 316.660156 Z M 150.746094 183.230469 " fill-opacity="1" fill-rule="nonzero"/><path fill="rgb(18.429565%, 16.079712%, 16.859436%)" d="M 171.59375 256.535156 C 171.351562 258.6875 172.3125 259.40625 173.75 259.648438 C 175.1875 259.886719 176.625 259.40625 176.863281 257.25 C 177.105469 255.097656 174.945312 251.742188 174.945312 251.742188 C 174.945312 251.742188 171.832031 254.378906 171.59375 256.535156 Z M 171.59375 256.535156 " fill-opacity="1" fill-rule="nonzero"/><path fill="rgb(18.429565%, 16.079712%, 16.859436%)" d="M 145.234375 260.84375 C 144.992188 263 145.953125 263.71875 147.390625 263.960938 C 148.828125 264.199219 150.265625 263.71875 150.503906 261.5625 C 150.746094 259.40625 148.589844 256.054688 148.589844 256.054688 C 148.589844 256.054688 145.472656 258.6875 145.234375 260.84375 Z M 145.234375 260.84375 " fill-opacity="1" fill-rule="nonzero"/><path fill="rgb(18.429565%, 16.079712%, 16.859436%)" d="M 235.09375 278.8125 C 234.855469 280.96875 235.8125 281.6875 237.25 281.925781 C 238.6875 282.164062 240.125 281.6875 240.363281 279.53125 C 240.605469 277.375 238.449219 274.019531 238.449219 274.019531 C 238.449219 274.019531 235.332031 276.65625 235.09375 278.8125 Z M 235.09375 278.8125 " fill-opacity="1" fill-rule="nonzero"/><path fill="rgb(99.609375%, 17.649841%, 36.468506%)" d="M 200.109375 280.488281 C 198.910156 282.40625 199.390625 283.363281 200.585938 284.320312 C 201.785156 285.039062 203.222656 285.28125 204.421875 283.601562 C 205.621094 281.6875 205.140625 277.851562 205.140625 277.851562 C 205.140625 277.851562 201.546875 278.570312 200.109375 280.488281 Z M 200.109375 280.488281 " fill-opacity="1" fill-rule="nonzero"/><path fill="rgb(18.429565%, 16.079712%, 16.859436%)" d="M 194.355469 316.660156 C 193.160156 318.578125 193.636719 319.535156 194.835938 320.492188 C 196.035156 321.210938 197.472656 321.453125 198.671875 319.777344 C 199.867188 317.859375 199.390625 314.027344 199.390625 314.027344 C 199.390625 314.027344 195.792969 314.984375 194.355469 316.660156 Z M 194.355469 316.660156 " fill-opacity="1" fill-rule="nonzero"/><path fill="rgb(18.429565%, 16.079712%, 16.859436%)" d="M 151.222656 209.582031 C 149.066406 210.300781 149.066406 211.738281 149.546875 212.933594 C 150.027344 214.371094 150.984375 215.328125 153.140625 214.371094 C 155.296875 213.652344 156.976562 210.058594 156.976562 210.058594 C 156.976562 210.058594 153.378906 208.863281 151.222656 209.582031 Z M 151.222656 209.582031 " fill-opacity="1" fill-rule="nonzero"/><path fill="rgb(18.429565%, 16.079712%, 16.859436%)" d="M 196.273438 242.398438 C 194.117188 243.117188 193.878906 244.316406 194.597656 245.753906 C 195.074219 247.191406 196.035156 248.148438 198.191406 247.429688 C 200.347656 246.710938 202.023438 243.117188 202.023438 243.117188 C 202.023438 243.117188 198.429688 241.441406 196.273438 242.398438 Z M 196.273438 242.398438 " fill-opacity="1" fill-rule="nonzero"/><path fill="rgb(18.429565%, 16.079712%, 16.859436%)" d="M 266.003906 314.027344 C 263.847656 314.746094 263.847656 316.183594 264.328125 317.378906 C 264.808594 318.816406 265.765625 319.777344 267.921875 318.816406 C 270.078125 318.097656 271.757812 314.503906 271.757812 314.503906 C 271.757812 314.503906 268.160156 313.308594 266.003906 314.027344 Z M 266.003906 314.027344 " fill-opacity="1" fill-rule="nonzero"/><path fill="rgb(18.429565%, 16.079712%, 16.859436%)" d="M 228.863281 310.671875 C 226.945312 311.628906 226.945312 312.828125 227.425781 314.265625 C 228.144531 315.464844 229.101562 316.421875 231.257812 315.464844 C 233.175781 314.503906 234.613281 310.671875 234.613281 310.671875 C 234.613281 310.671875 230.78125 309.714844 228.863281 310.671875 Z M 228.863281 310.671875 " fill-opacity="1" fill-rule="nonzero"/><path fill="rgb(18.429565%, 16.079712%, 16.859436%)" d="M 163.925781 296.777344 C 162.246094 298.214844 162.488281 299.414062 163.445312 300.609375 C 164.402344 301.808594 165.601562 302.289062 167.277344 300.851562 C 168.957031 299.414062 169.4375 295.339844 169.4375 295.339844 C 169.4375 295.339844 165.601562 295.339844 163.925781 296.777344 Z M 163.925781 296.777344 " fill-opacity="1" fill-rule="nonzero"/><path fill="rgb(79.998779%, 35.688782%, 2.349854%)" d="M 95.871094 218.203125 C 95.871094 218.203125 123.1875 247.191406 135.410156 352.355469 L 122.46875 369.125 L 112.40625 362.894531 L 59.207031 256.53125 L 57.289062 233.296875 Z M 95.871094 218.203125 " fill-opacity="1" fill-rule="nonzero"/><path fill="rgb(28.239441%, 58.428955%, 41.958618%)" d="M 81.972656 228.746094 C 81.492188 227.785156 81.253906 227.066406 80.773438 226.109375 C 72.867188 206.945312 87.722656 172.449219 102.582031 158.078125 L 95.632812 151.128906 C 78.855469 168.378906 62.082031 203.351562 71.667969 229.703125 C 72.148438 230.902344 72.628906 232.097656 73.347656 233.296875 Z M 81.972656 228.746094 " fill-opacity="1" fill-rule="nonzero"/><g clip-path="url(#id5)"><path fill="rgb(28.239441%, 58.428955%, 41.958618%)" d="M 66.398438 230.183594 C 62.082031 218.683594 51.300781 208.144531 38.839844 200.238281 C 26.378906 192.332031 12.242188 187.0625 -0.21875 188.5 L 0.980469 198.320312 C 9.605469 197.125 22.304688 201.4375 33.566406 208.621094 C 44.832031 215.570312 54.175781 225.628906 57.050781 233.777344 C 57.050781 233.777344 57.050781 234.015625 57.289062 234.015625 L 66.636719 230.660156 C 66.636719 230.660156 66.398438 230.421875 66.398438 230.183594 Z M 66.398438 230.183594 " fill-opacity="1" fill-rule="nonzero"/></g><path fill="rgb(28.239441%, 58.428955%, 41.958618%)" d="M 67.117188 221.558594 C 58.488281 199.28125 35.964844 177.242188 19.667969 169.097656 L 15.355469 177.960938 C 28.777344 184.1875 51.0625 206.226562 58.011719 225.152344 C 59.6875 229.703125 60.644531 234.015625 60.644531 237.847656 L 70.46875 238.085938 C 70.46875 232.816406 69.273438 227.066406 67.117188 221.558594 Z M 67.117188 221.558594 " fill-opacity="1" fill-rule="nonzero"/><path fill="rgb(28.239441%, 58.428955%, 41.958618%)" d="M 65.199219 225.628906 C 64.480469 219.640625 62.5625 213.414062 60.167969 206.945312 C 52.976562 188.019531 40.039062 168.617188 30.691406 156.878906 L 38.601562 150.890625 C 48.183594 163.347656 61.605469 183.230469 69.511719 203.589844 C 71.90625 209.820312 73.585938 216.046875 74.785156 222.277344 C 71.1875 222.996094 68.074219 224.195312 65.199219 225.628906 Z M 65.199219 225.628906 " fill-opacity="1" fill-rule="nonzero"/><path fill="rgb(28.239441%, 58.428955%, 41.958618%)" d="M 73.105469 150.410156 L 63.761719 147.058594 C 55.613281 170.773438 66.398438 200 69.992188 221.078125 L 79.816406 219.164062 C 75.503906 197.125 66.398438 168.855469 73.105469 150.410156 Z M 73.105469 150.410156 " fill-opacity="1" fill-rule="nonzero"/><path fill="rgb(98.81897%, 50.19989%, 2.349854%)" d="M 61.125 207.664062 C 76.222656 201.914062 92.753906 208.144531 105.457031 233.058594 C 104.496094 231.140625 103.300781 229.222656 102.339844 227.308594 C 90.597656 231.859375 79.335938 237.609375 69.511719 246.472656 C 78.617188 243.117188 93.234375 235.691406 105.695312 233.058594 C 107.371094 236.410156 109.050781 240.003906 110.488281 243.835938 C 110.007812 242.398438 109.289062 240.960938 108.570312 239.523438 C 96.589844 244.316406 85.085938 250.066406 75.023438 258.929688 C 84.128906 255.574219 98.746094 248.148438 110.96875 245.515625 C 111.6875 247.667969 112.644531 249.824219 113.363281 252.222656 C 101.621094 256.773438 90.597656 262.523438 80.773438 271.144531 C 89.640625 268.03125 103.300781 260.84375 115.28125 258.210938 C 116.476562 262.042969 117.675781 266.355469 118.875 270.667969 C 118.394531 268.75 117.917969 267.074219 117.4375 265.15625 C 106.175781 269.707031 95.871094 275.21875 86.285156 283.601562 C 94.671875 280.488281 107.613281 274.019531 119.113281 271.144531 C 119.832031 273.542969 120.3125 275.9375 121.03125 278.570312 C 110.488281 282.882812 100.664062 288.394531 91.796875 296.300781 C 99.703125 293.425781 111.445312 287.4375 122.46875 284.320312 C 121.988281 282.644531 121.75 281.207031 121.269531 279.53125 C 122.230469 283.601562 123.425781 287.675781 124.386719 291.988281 C 114.800781 296.300781 105.695312 301.328125 97.308594 308.515625 C 104.496094 305.882812 115.28125 300.609375 125.585938 297.257812 C 134.929688 338.222656 141.398438 384.453125 130.375 388.527344 C 113.363281 394.996094 61.605469 301.089844 48.664062 266.835938 C 35.484375 233.296875 44.113281 214.132812 61.125 207.664062 Z M 135.167969 352.59375 C 134.929688 351.15625 134.929688 349.71875 134.691406 348.28125 C 129.417969 351.398438 124.386719 354.75 119.59375 358.824219 C 123.90625 357.386719 129.417969 354.988281 135.167969 352.59375 Z M 133.492188 338.460938 C 133.253906 337.023438 133.011719 335.347656 132.773438 333.910156 C 126.304688 337.261719 120.074219 341.335938 114.320312 346.605469 C 119.355469 344.449219 126.0625 341.335938 133.492188 338.460938 Z M 131.09375 324.804688 C 130.855469 323.128906 130.617188 321.453125 130.136719 319.777344 C 122.46875 323.609375 115.28125 327.921875 108.570312 333.910156 C 114.5625 331.753906 122.707031 327.921875 131.09375 324.804688 Z M 128.460938 311.152344 C 128.21875 309.476562 127.742188 307.558594 127.261719 305.882812 C 118.636719 309.953125 110.25 314.746094 102.820312 321.453125 C 109.53125 319.058594 119.113281 314.503906 128.460938 311.152344 Z M 128.460938 311.152344 " fill-opacity="1" fill-rule="nonzero"/><path fill="rgb(28.239441%, 58.428955%, 41.958618%)" d="M 381.503906 257.96875 C 386.777344 246.949219 403.070312 236.648438 414.574219 233.777344 C 416.25 236.890625 417.925781 240.484375 418.886719 244.078125 C 405.46875 242.160156 389.890625 248.628906 383.902344 261.5625 Z M 381.503906 257.96875 " fill-opacity="1" fill-rule="nonzero"/><path fill="rgb(28.239441%, 58.428955%, 41.958618%)" d="M 389.410156 235.691406 C 391.808594 249.347656 380.785156 263 380.785156 263 C 380.785156 263 365.6875 254.378906 363.054688 240.484375 C 360.417969 226.828125 371.441406 213.175781 371.441406 213.175781 C 371.441406 213.175781 386.777344 222.039062 389.410156 235.691406 Z M 389.410156 235.691406 " fill-opacity="1" fill-rule="nonzero"/><path fill="rgb(89.019775%, 12.159729%, 14.898682%)" d="M 314.410156 266.355469 C 303.386719 290.789062 316.328125 320.492188 342.925781 332.472656 C 362.09375 341.097656 386.058594 338.699219 401.632812 323.609375 C 416.25 309.234375 425.355469 284.082031 407.144531 268.75 C 400.675781 263.242188 392.046875 260.605469 384.621094 256.535156 C 378.390625 253.179688 373.117188 248.386719 366.648438 245.515625 C 345.5625 235.453125 323.753906 245.753906 314.410156 266.355469 Z M 314.410156 266.355469 " fill-opacity="1" fill-rule="nonzero"/><path fill="rgb(99.609375%, 17.649841%, 36.468506%)" d="M 406.425781 300.371094 C 402.832031 311.628906 392.289062 319.535156 380.785156 322.171875 C 379.347656 322.410156 377.910156 322.648438 376.710938 321.691406 C 375.273438 320.492188 375.992188 318.097656 377.191406 316.660156 C 381.503906 310.191406 389.652344 307.078125 394.921875 301.089844 C 403.550781 291.507812 401.394531 279.289062 396.839844 271.625 C 406.425781 276.65625 409.539062 290.789062 406.425781 300.371094 Z M 406.425781 300.371094 " fill-opacity="0.5686" fill-rule="nonzero"/><path fill="rgb(100%, 100%, 100%)" d="M 322.796875 240.960938 C 315.128906 233.777344 300.269531 233.296875 291.164062 234.734375 C 280.144531 236.410156 269.839844 240.960938 259.773438 245.515625 C 249.710938 250.304688 239.886719 255.574219 231.257812 262.523438 C 222.871094 269.46875 224.308594 275.21875 231.976562 283.125 C 236.53125 287.914062 242.28125 291.507812 247.3125 295.582031 C 258.335938 304.203125 267.441406 314.746094 274.390625 326.722656 C 276.789062 330.554688 278.945312 334.867188 282.300781 337.742188 C 285.894531 340.617188 291.164062 342.054688 295 339.417969 C 300.511719 335.824219 299.3125 327.679688 298.59375 321.210938 C 296.917969 306.121094 301.710938 290.550781 311.292969 278.570312 C 314.648438 274.5 318.484375 270.667969 321.835938 266.355469 C 324.953125 262.042969 327.589844 257.011719 327.347656 251.742188 C 327.347656 247.191406 325.433594 243.597656 322.796875 240.960938 Z M 322.796875 240.960938 " fill-opacity="1" fill-rule="nonzero"/><path fill="rgb(3.919983%, 52.549744%, 34.118652%)" d="M 270.796875 353.3125 L 314.648438 342.292969 C 304.824219 327.679688 306.023438 284.5625 329.746094 260.367188 C 327.109375 258.929688 324.953125 256.773438 323.277344 254.617188 C 313.449219 265.636719 301.230469 282.882812 300.03125 296.058594 C 298.59375 284.5625 296.199219 266.835938 295.480469 255.574219 C 293.320312 256.773438 290.925781 257.730469 288.53125 258.210938 C 286.613281 258.6875 284.695312 258.929688 282.777344 258.929688 C 278.707031 275.21875 281.339844 300.609375 286.132812 315.464844 C 285.652344 314.746094 285.175781 313.785156 284.695312 313.066406 C 276.546875 298.695312 256.660156 281.207031 239.644531 277.136719 L 237.730469 280.488281 C 237.011719 285.039062 236.050781 285.039062 233.414062 288.871094 C 251.386719 302.527344 268.160156 330.554688 270.796875 353.3125 Z M 270.796875 353.3125 " fill-opacity="1" fill-rule="nonzero"/><path fill="rgb(10.198975%, 65.098572%, 44.309998%)" d="M 203.222656 301.570312 C 212.089844 308.515625 226.226562 305.164062 234.855469 294.144531 C 238.207031 290.070312 240.125 285.28125 240.84375 280.726562 C 243.242188 280.007812 245.875 279.050781 248.273438 277.851562 C 257.859375 273.0625 265.046875 265.875 269.359375 257.96875 C 270.078125 258.449219 270.796875 258.929688 271.515625 259.40625 C 276.070312 262.28125 282.300781 263.242188 288.769531 261.5625 C 296.917969 259.648438 302.90625 254.136719 304.585938 248.386719 C 306.5 249.105469 308.660156 249.824219 310.574219 250.066406 C 313.929688 250.785156 317.046875 250.785156 320.160156 250.304688 C 320.878906 257.25 328.308594 263.242188 337.890625 264.199219 C 348.4375 265.15625 357.78125 259.648438 358.5 251.742188 C 359.21875 244.078125 351.789062 236.890625 341.488281 235.691406 C 341.726562 234.734375 342.207031 234.015625 342.445312 233.058594 C 344.601562 220.839844 334.058594 208.621094 318.722656 205.746094 C 317.765625 205.507812 317.046875 205.507812 316.085938 205.507812 L 316.085938 204.789062 C 312.730469 191.136719 294.28125 183.949219 275.109375 188.738281 C 267.683594 190.65625 261.210938 194.007812 256.179688 198.320312 C 251.386719 202.632812 248.03125 207.664062 246.59375 212.933594 C 237.730469 211.496094 227.664062 212.933594 218.320312 217.484375 C 197.710938 227.546875 187.648438 249.347656 196.035156 266.117188 C 197.230469 268.511719 198.910156 270.667969 200.585938 272.582031 C 194.355469 283.125 195.316406 295.339844 203.222656 301.570312 Z M 203.222656 301.570312 " fill-opacity="1" fill-rule="nonzero"/><path fill="rgb(3.919983%, 52.549744%, 34.118652%)" d="M 334.296875 235.929688 L 335.257812 234.496094 C 338.371094 228.503906 335.015625 220.121094 327.347656 216.046875 C 326.390625 215.570312 325.433594 215.089844 324.472656 214.851562 C 331.902344 219.402344 335.015625 228.265625 331.183594 235.453125 L 329.984375 236.890625 C 329.027344 238.085938 328.066406 239.285156 326.871094 240.003906 C 330.222656 239.523438 332.621094 238.085938 334.296875 235.929688 Z M 309.378906 223.476562 C 312.253906 217.964844 311.535156 211.496094 308.179688 205.507812 C 305.78125 201.4375 301.949219 197.601562 297.15625 194.96875 C 295.71875 194.25 294.28125 193.53125 292.84375 193.050781 C 298.355469 196.164062 302.1875 201.195312 304.105469 206.464844 C 306.5 212.457031 306.5 219.164062 303.386719 224.910156 C 301.710938 228.027344 299.550781 230.421875 296.675781 232.097656 C 302.429688 230.902344 306.980469 228.027344 309.378906 223.476562 Z M 297.875 250.785156 C 298.832031 249.347656 299.074219 247.667969 299.074219 245.992188 C 299.074219 242.398438 297.15625 238.566406 293.5625 236.171875 L 292.125 235.214844 C 291.40625 234.734375 290.6875 234.496094 289.726562 234.253906 C 290.6875 234.972656 291.644531 235.691406 292.601562 236.410156 C 294.519531 238.566406 295.957031 241.203125 296.199219 243.835938 C 296.4375 246.472656 295.957031 249.105469 294.519531 251.503906 C 293.5625 253.179688 292.125 254.617188 290.6875 255.816406 C 293.800781 255.335938 296.4375 253.417969 297.875 250.785156 Z M 258.097656 242.160156 C 260.015625 246.230469 260.972656 250.304688 260.972656 254.617188 C 263.609375 248.867188 264.085938 242.878906 262.171875 237.367188 C 261.929688 236.648438 261.691406 235.691406 261.453125 234.972656 C 258.578125 229.464844 253.542969 225.628906 247.3125 223.714844 C 239.886719 221.558594 231.257812 222.277344 223.113281 226.347656 C 221.195312 227.308594 219.515625 228.265625 218.078125 229.464844 C 233.175781 222.515625 251.148438 228.027344 258.097656 242.160156 Z M 229.101562 268.988281 C 230.539062 270.425781 231.738281 272.105469 232.457031 273.78125 C 232.457031 270.667969 231.5 267.550781 229.101562 265.398438 C 224.550781 261.085938 217.121094 262.042969 212.570312 267.3125 C 212.089844 268.03125 211.609375 268.75 211.128906 269.230469 C 215.921875 264.4375 223.832031 264.199219 229.101562 268.988281 Z M 229.101562 268.988281 " fill-opacity="1" fill-rule="nonzero"/><g clip-path="url(#id6)"><path fill="rgb(99.21875%, 71.759033%, 0.779724%)" d="M 402.113281 322.890625 L 136.605469 322.890625 L 136.605469 622.09375 L 402.113281 622.09375 Z M 402.113281 322.890625 " fill-opacity="1" fill-rule="nonzero"/></g><g clip-path="url(#id7)"><path fill="rgb(85.879517%, 62.348938%, 28.239441%)" d="M 136.605469 322.890625 L 73.585938 322.890625 L 73.585938 622.09375 L 136.605469 622.09375 Z M 136.605469 322.890625 " fill-opacity="1" fill-rule="nonzero"/></g><g clip-path="url(#id8)"><path fill="rgb(84.309387%, 58.039856%, 19.999695%)" d="M 136.605469 322.890625 L 105.214844 322.890625 L 105.214844 622.09375 L 136.605469 622.09375 Z M 136.605469 322.890625 " fill-opacity="1" fill-rule="nonzero"/></g><g clip-path="url(#id9)"><path fill="rgb(78.819275%, 48.629761%, 1.959229%)" d="M 73.824219 622.09375 L 136.605469 622.09375 L 105.214844 576.335938 Z M 73.824219 622.09375 " fill-opacity="1" fill-rule="nonzero"/></g><path fill="rgb(99.21875%, 71.759033%, 0.779724%)" d="M 264.566406 386.371094 C 296.675781 386.371094 322.796875 357.625 322.796875 322.171875 C 322.796875 286.71875 296.675781 257.96875 264.566406 257.96875 C 232.457031 257.96875 206.339844 286.71875 206.339844 322.171875 C 206.339844 357.625 232.457031 386.371094 264.566406 386.371094 Z M 264.566406 274.5 C 287.570312 274.5 306.023438 295.820312 306.023438 322.171875 C 306.023438 348.523438 287.332031 369.84375 264.566406 369.84375 C 241.800781 369.84375 223.113281 348.523438 223.113281 322.171875 C 223.113281 295.820312 241.5625 274.5 264.566406 274.5 Z M 264.566406 274.5 " fill-opacity="1" fill-rule="nonzero"/><path fill="rgb(98.429871%, 47.059631%, 45.489502%)" d="M 208.734375 538.726562 C 208.496094 536.570312 210.410156 534.414062 212.328125 533.457031 C 214.484375 532.257812 216.882812 531.78125 219.515625 531.542969 C 252.347656 529.625 270.316406 522.199219 277.507812 517.648438 C 278.226562 517.167969 277.746094 515.96875 276.789062 516.210938 C 269.359375 518.605469 261.691406 520.28125 254.023438 521.238281 C 245.15625 522.675781 235.8125 522.675781 226.945312 521.71875 C 225.746094 521.480469 224.789062 521.238281 223.832031 520.761719 C 218.078125 517.886719 219.515625 509.980469 225.746094 508.785156 C 233.65625 507.585938 241.5625 505.910156 249.710938 504.472656 C 262.890625 502.074219 275.351562 497.523438 287.09375 491.296875 C 293.082031 487.941406 298.59375 484.347656 303.867188 480.035156 C 291.40625 481.953125 279.902344 483.152344 267.441406 482.191406 C 261.929688 481.714844 254.261719 478.601562 254.261719 473.570312 C 254.261719 470.214844 257.617188 467.339844 261.453125 466.382812 C 265.046875 465.425781 268.878906 465.902344 272.714844 465.664062 C 283.976562 465.425781 294.519531 460.871094 305.542969 458.238281 C 323.273438 454.40625 348.675781 454.40625 360.417969 463.746094 L 373.117188 536.09375 C 359.457031 558.371094 323.753906 580.171875 272.476562 581.367188 C 264.808594 580.648438 266.246094 575.140625 268.160156 573.941406 C 272.714844 571.066406 278.464844 569.628906 283.257812 566.996094 C 286.371094 565.316406 291.40625 561.964844 293.082031 559.089844 C 293.5625 558.132812 292.363281 556.933594 288.53125 559.328125 C 272.714844 569.152344 239.644531 570.109375 232.9375 567.953125 C 230.300781 566.996094 227.664062 565.078125 227.90625 562.683594 C 228.144531 560.765625 230.0625 559.328125 231.976562 558.371094 C 243.480469 553.339844 270.078125 551.902344 282.777344 539.6875 C 283.976562 538.488281 282.539062 536.8125 281.101562 537.289062 C 260.972656 544.957031 241.800781 547.351562 219.757812 544.957031 C 217.359375 544.714844 214.964844 544.238281 212.808594 543.277344 C 210.652344 542.800781 208.734375 540.882812 208.734375 538.726562 Z M 208.734375 538.726562 " fill-opacity="1" fill-rule="nonzero"/><path fill="rgb(98.429871%, 47.059631%, 45.489502%)" d="M 354.667969 543.996094 L 412.65625 525.550781 L 389.652344 448.414062 L 339.808594 466.144531 Z M 354.667969 543.996094 " fill-opacity="1" fill-rule="nonzero"/><g clip-path="url(#id10)"><path fill="rgb(9.01947%, 39.608765%, 81.17981%)" d="M 368.566406 450.332031 L 595.25 365.289062 L 595.25 485.785156 L 396.839844 538.007812 Z M 368.566406 450.332031 " fill-opacity="1" fill-rule="nonzero"/></g><g clip-path="url(#id11)"><path fill="rgb(18.818665%, 45.878601%, 83.139038%)" d="M 368.566406 450.332031 L 595.25 365.289062 L 595.25 381.101562 L 372.636719 462.789062 Z M 368.566406 450.332031 " fill-opacity="1" fill-rule="nonzero"/></g></g></g></g></g></svg>